<?xml version="1.0" standalone="no"?>
<!DOCTYPE svg PUBLIC "-//W3C//DTD SVG 20010904//EN"
 "http://www.w3.org/TR/2001/REC-SVG-20010904/DTD/svg10.dtd">
<svg version="1.0" xmlns="http://www.w3.org/2000/svg"
 width="102.000000pt" height="102.000000pt" viewBox="0 0 102.000000 102.000000"
 preserveAspectRatio="xMidYMid meet">
<metadata>
Created by potrace 1.11, written by Peter Selinger 2001-2013
</metadata>
<g transform="translate(0.000000,102.000000) scale(0.100000,-0.100000)"
fill="#000000" stroke="none">
<path d="M88 1008 c-57 -11 -68 -36 -68 -154 0 -57 3 -104 8 -104 8 0 532 258
532 262 0 6 -440 3 -472 -4z"/>
<path d="M700 745 c-39 -23 -340 -165 -350 -165 -5 0 -11 -4 -14 -8 -3 -4 33
-8 79 -7 l84 1 118 93 c65 52 109 83 98 70 -20 -23 -49 -56 -119 -134 -20 -22
-38 -47 -41 -55 -2 -8 3 -57 13 -109 l17 -93 74 193 c97 258 95 245 41 214z"/>
<path d="M991 588 c-5 -13 -39 -95 -76 -183 -117 -280 -165 -396 -165 -399 0
-1 45 -2 100 -2 95 1 101 3 127 29 l27 27 1 275 c0 151 -1 275 -2 275 -2 0 -8
-10 -12 -22z"/>
<path d="M98 439 l-78 -39 0 -170 c0 -163 1 -170 24 -196 l23 -28 176 -2 176
-1 37 93 37 93 -102 97 c-149 142 -205 194 -211 194 -3 -1 -40 -19 -82 -41z"/>
</g>
</svg>
